HIERARCHY
ROOT Hips
{
 OFFSET 0.000000 0.000000 0.000000
 CHANNELS 6 Xposition Yposition Zposition Yrotation Xrotation Zrotation
 JOINT Chest
 {
  OFFSET 0.000000 9.585900 0.002600
  CHANNELS 3 Yrotation Xrotation Zrotation
  JOINT Chest2
  {
   OFFSET 0.000000 9.601200 -0.005300
   CHANNELS 3 Yrotation Xrotation Zrotation
   JOINT Chest3
   {
    OFFSET 0.000000 9.561800 0.000000
    CHANNELS 3 Yrotation Xrotation Zrotation
    JOINT Chest4
    {
     OFFSET 0.000000 9.552100 0.000000
     CHANNELS 3 Yrotation Xrotation Zrotation
     JOINT Neck
     {
      OFFSET 0.000000 14.453000 0.000000
      CHANNELS 3 Yrotation Xrotation Zrotation
      JOINT Head
      {
       OFFSET 0.000000 8.936500 -0.011300
       CHANNELS 3 Yrotation Xrotation Zrotation
       End Site
       {
        OFFSET 0.000000 17.073600 -0.006000
       }
      }
     }
     JOINT RightCollar
     {
      OFFSET -2.921100 9.558500 0.000000
      CHANNELS 3 Yrotation Xrotation Zrotation
      JOINT RightShoulder
      {
       OFFSET -13.519700 0.000000 0.000000
       CHANNELS 3 Yrotation Xrotation Zrotation
       JOINT RightElbow
       {
        OFFSET 0.000000 -29.696600 0.000000
        CHANNELS 3 Yrotation Xrotation Zrotation
        JOINT RightWrist
        {
         OFFSET 0.000000 -24.004700 0.000000
         CHANNELS 3 Yrotation Xrotation Zrotation
         End Site
         {
          OFFSET 0.000000 -17.728500 0.000000
         }
        }
       }
      }
     }
     JOINT LeftCollar
     {
      OFFSET 2.921100 9.558500 0.000000
      CHANNELS 3 Yrotation Xrotation Zrotation
      JOINT LeftShoulder
      {
       OFFSET 13.519700 0.000000 0.000000
       CHANNELS 3 Yrotation Xrotation Zrotation
       JOINT LeftElbow
       {
        OFFSET 0.000000 -29.696600 0.000000
        CHANNELS 3 Yrotation Xrotation Zrotation
        JOINT LeftWrist
        {
         OFFSET 0.000000 -24.004700 0.000000
         CHANNELS 3 Yrotation Xrotation Zrotation
         End Site
         {
          OFFSET 0.000000 -17.728500 0.000000
         }
        }
       }
      }
     }
    }
   }
  }
 }
 JOINT RightHip
 {
  OFFSET -7.771700 -0.012900 -0.001300
  CHANNELS 3 Yrotation Xrotation Zrotation
  JOINT RightKnee
  {
   OFFSET 0.000000 -40.869800 0.001200
   CHANNELS 3 Yrotation Xrotation Zrotation
   JOINT RightAnkle
   {
    OFFSET 0.000000 -39.717900 0.002100
    CHANNELS 3 Yrotation Xrotation Zrotation
    JOINT RightToe
    {
     OFFSET 0.000000 -4.965400 11.033500
     CHANNELS 3 Yrotation Xrotation Zrotation
     End Site
     {
      OFFSET 0.000000 -1.423100 5.872300
     }
    }
   }
  }
 }
 JOINT LeftHip
 {
  OFFSET 7.771700 -0.012900 -0.001300
  CHANNELS 3 Yrotation Xrotation Zrotation
  JOINT LeftKnee
  {
   OFFSET 0.000000 -40.869800 0.001200
   CHANNELS 3 Yrotation Xrotation Zrotation
   JOINT LeftAnkle
   {
    OFFSET 0.000000 -39.717900 0.002100
    CHANNELS 3 Yrotation Xrotation Zrotation
    JOINT LeftToe
    {
     OFFSET 0.000000 -4.965400 11.033500
     CHANNELS 3 Yrotation Xrotation Zrotation
     End Site
     {
      OFFSET 0.000000 -1.423100 5.872300
     }
    }
   }
  }
 }
}
MOTION
Frames: 6
Frame Time: 0.008333
-230.623568 57.766156 23.437746 173.807588 -51.497812 -3.489219 4.456068 24.098719 3.757797 2.302669 13.807939 1.870409 2.972594 17.247002 2.446835 2.300663 13.807871 1.870243 0.708098 16.657688 3.091233 0.231993 -4.842356 5.473677 1.595209 0.561770 -0.299165 1.706516 -19.600577 -10.829239 -103.961402 -54.056120 154.557228 28.946627 31.890937 6.213824 -8.847751 -2.019543 -0.818809 1.016756 -13.918610 11.027149 78.430731 -54.662801 -132.373341 -17.264547 15.458712 -14.343805 6.540862 -20.395036 0.243237 -41.242384 72.337397 -44.398933 4.035044 -13.384161 12.123542 -0.005472 -0.006488 0.002552 -9.353616 -17.950897 9.926409 54.070940 81.714899 55.878607 -0.023792 -18.035867 -22.479903 0.007000 -0.015712 -0.007597
-230.622332 57.766853 23.436141 173.799403 -51.499724 -3.487295 4.460749 24.100921 3.760845 2.303958 13.806633 1.870065 2.972756 17.246987 2.445524 2.302105 13.808211 1.869981 0.704339 16.654211 3.087368 0.226736 -4.853910 5.465270 1.599468 0.562403 -0.307575 1.691228 -19.592368 -10.824945 -103.960938 -54.055178 154.563043 28.924470 31.897558 6.186132 -8.853115 -2.021714 -0.817598 1.006143 -13.912041 11.037260 78.422605 -54.650372 -132.361892 -17.244036 15.456228 -14.319526 6.541613 -20.392790 0.250320 -41.243096 72.335271 -44.398305 4.035177 -13.383216 12.120006 -0.004313 -0.005861 0.001448 -9.350512 -17.947342 9.930120 54.077450 81.715517 55.885684 -0.023462 -18.034944 -22.476268 0.004272 -0.018055 -0.012097
-230.622461 57.766980 23.434683 173.794412 -51.498013 -3.481184 4.461458 24.099945 3.757110 2.303741 13.807064 1.870844 2.972085 17.246139 2.444182 2.301610 13.807561 1.868983 0.702533 16.650016 3.083125 0.225182 -4.862896 5.457956 1.602783 0.562465 -0.311106 1.686781 -19.587311 -10.824253 -103.963372 -54.058879 154.556913 28.921207 31.886066 6.188600 -8.855800 -2.024489 -0.817739 1.006641 -13.907147 11.042519 78.394089 -54.644338 -132.361750 -17.212210 15.453378 -14.261932 6.544279 -20.394578 0.245172 -41.237447 72.339256 -44.390239 4.037637 -13.384130 12.115910 -0.007854 -0.006029 0.000193 -9.347799 -17.945545 9.927507 54.061738 81.713340 55.867209 -0.021703 -18.035287 -22.471508 0.005411 -0.016168 -0.012805
-230.622139 57.766168 23.434094 173.787227 -51.489306 -3.478009 4.464378 24.091344 3.756456 2.298653 13.806548 1.866062 2.975701 17.243472 2.444946 2.301657 13.805917 1.868302 0.696917 16.639196 3.074174 0.231400 -4.857410 5.457270 1.616033 0.563128 -0.316671 1.675544 -19.582177 -10.816535 -103.960679 -54.069550 154.553665 28.903702 31.878325 6.156412 -8.863553 -2.023544 -0.817624 1.014436 -13.901509 11.050898 78.400393 -54.642593 -132.378339 -17.156164 15.452839 -14.200552 6.550211 -20.407005 0.241691 -41.236082 72.346940 -44.383912 4.033479 -13.384355 12.110740 -0.005861 -0.006125 0.002616 -9.345414 -17.953634 9.929701 54.050855 81.715257 55.859173 -0.017674 -18.034760 -22.471925 0.009254 -0.015679 -0.011562
-230.622381 57.765501 23.433383 173.782638 -51.481764 -3.474637 4.463242 24.088835 3.751644 2.301494 13.801903 1.867912 2.972369 17.239410 2.441588 2.301219 13.803159 1.868021 0.698950 16.637688 3.069057 0.233197 -4.852501 5.460054 1.628306 0.570518 -0.320287 1.671216 -19.577961 -10.816795 -103.977125 -54.085663 154.561948 28.872996 31.857964 6.060436 -8.868733 -2.018932 -0.819121 1.013527 -13.893236 11.066524 78.420462 -54.643058 -132.406321 -17.078818 15.442773 -14.116131 6.555149 -20.415871 0.232740 -41.222813 72.353839 -44.366705 4.041068 -13.386101 12.106996 -0.013065 -0.006318 0.002809 -9.343188 -17.961667 9.929538 54.052354 81.720163 55.864253 -0.012904 -18.036936 -22.474208 0.006024 -0.013994 -0.009006
-230.622842 57.765045 23.432618 173.779606 -51.475476 -3.471948 4.464528 24.083621 3.750582 2.300775 13.801489 1.867150 2.975770 17.234014 2.441341 2.298863 13.806832 1.869042 0.697962 16.626804 3.062422 0.226558 -4.856689 5.452991 1.633836 0.572434 -0.327441 1.668553 -19.573577 -10.820617 -103.989035 -54.077394 154.567330 28.874619 31.848528 5.989306 -8.896868 -2.023160 -0.822506 1.007975 -13.872755 11.099343 78.465077 -54.640665 -132.444760 -16.980000 15.421892 -14.001853 6.558519 -20.423359 0.223139 -41.208912 72.359561 -44.346562 4.045210 -13.384988 12.101993 -0.012638 -0.006589 0.000266 -9.341696 -17.968328 9.929346 54.051987 81.722885 55.865632 -0.006292 -18.037922 -22.473813 0.006938 -0.012218 -0.008567
